<svg xmlns="http://www.w3.org/2000/svg" width="40" height="40" viewBox="0 0 40 40"><rect width="100%" height="100%" fill="none"/><path d="m16.72 17.03-1.3-.23q.15-1.04.58-1.83.43-.78 1.08-1.3.64-.53 1.48-.8.83-.26 1.79-.26 1 0 1.81.28.8.29 1.37.8.57.5.87 1.18.31.68.31 1.47 0 .69-.15 1.21-.16.53-.45.92t-.72.66-.97.45q1.3.41 1.94 1.25t.64 2.11q0 1.08-.4 1.91t-1.08 1.4q-.68.56-1.57.85-.9.29-1.9.29-1.09 0-1.9-.25t-1.41-.74-1.02-1.2-.72-1.64l1.09-.45q.43-.18.81-.09.37.08.54.4.18.35.4.69.21.34.51.6.3.27.71.44.4.16.96.16.63 0 1.1-.21.47-.2.79-.53.31-.33.47-.74.15-.4.15-.81 0-.52-.11-.95-.11-.42-.46-.72t-1-.47q-.66-.17-1.76-.17v-1.76q.91-.01 1.51-.17t.96-.44q.35-.29.49-.69t.14-.88q0-1.02-.57-1.55t-1.52-.53q-.44 0-.81.12-.37.13-.66.36-.3.22-.5.52t-.3.66q-.17.46-.44.61-.28.15-.78.07"/></svg>