<svg xmlns="http://www.w3.org/2000/svg" width="40" height="40" viewBox="0 0 40 40"><rect width="100%" height="100%" fill="none"/><path d="m18.89 14.93-.51 3.01q.48-.1.92-.15.44-.04.85-.04 1.14 0 2.01.34t1.46.94.89 1.41q.3.8.3 1.73 0 1.15-.4 2.1-.41.95-1.13 1.62-.72.68-1.7 1.05-.99.37-2.15.37-.68 0-1.29-.14T17 26.8q-.54-.24-1-.55-.45-.3-.81-.64l.76-1.05q.24-.34.63-.34.25 0 .51.16t.6.35q.33.19.79.35.45.16 1.09.16.68 0 1.2-.22t.87-.62q.34-.39.52-.94.17-.54.17-1.18 0-1.18-.68-1.84-.69-.67-2.03-.67-1.03 0-2.11.38l-1.54-.44 1.2-7.02h7.14v1.05q0 .53-.33.86t-1.12.33z"/></svg>