<svg xmlns="http://www.w3.org/2000/svg" width="40" height="40" viewBox="0 0 40 40"><rect width="100%" height="100%" fill="none"/><path d="m23.62 12.69-4.29 5.25-.5.62q.42-.21.91-.33.48-.11 1.04-.11.82 0 1.6.27.77.27 1.36.81.59.55.95 1.36t.36 1.89q0 1.01-.37 1.89-.37.89-1.04 1.55t-1.61 1.04q-.95.38-2.09.38-1.16 0-2.08-.37t-1.57-1.04q-.65-.66-1-1.6-.34-.93-.34-2.07 0-1.02.42-2.1.41-1.07 1.28-2.23l3.45-4.63q.18-.24.53-.41.34-.17.79-.17zm-3.73 12.6q.59 0 1.09-.2.49-.2.85-.56.35-.36.55-.84.2-.49.2-1.06 0-.62-.19-1.11-.19-.5-.54-.85-.35-.34-.84-.52t-1.08-.18-1.07.2-.82.56q-.34.35-.53.84-.19.48-.19 1.04 0 .6.17 1.09.16.5.49.85.32.35.8.54.48.2 1.11.2"/></svg>