<svg xmlns="http://www.w3.org/2000/svg" width="40" height="40" viewBox="0 0 40 40"><rect width="100%" height="100%" fill="none"/><path d="M20 25.46q.61 0 1.07-.18.46-.17.78-.48.31-.31.47-.74t.16-.93q0-1.19-.66-1.8T20 20.72t-1.82.61-.66 1.8q0 .5.16.93t.48.74q.31.31.77.48.46.18 1.07.18m0-10.99q-.55 0-.95.17t-.66.46q-.27.28-.39.65-.13.37-.13.78 0 .43.11.83.1.41.35.73.25.31.66.5t1.01.19 1.01-.19.66-.5q.25-.32.36-.73.1-.4.1-.83 0-.41-.13-.78t-.39-.65q-.26-.29-.66-.46t-.95-.17m2.44 5.22q1.32.43 1.95 1.31.63.89.63 2.17 0 .96-.36 1.74-.37.78-1.03 1.33t-1.59.85q-.92.3-2.04.3t-2.04-.3q-.93-.3-1.59-.85t-1.02-1.33q-.37-.78-.37-1.74 0-1.28.63-2.17.63-.88 1.95-1.31-1.05-.44-1.57-1.25-.53-.81-.53-1.95 0-.82.33-1.53.34-.71.94-1.24.6-.52 1.44-.82.83-.29 1.83-.29t1.83.29q.84.3 1.44.82.6.53.94 1.24.33.71.33 1.53 0 1.14-.53 1.95-.52.81-1.57 1.25"/></svg>