<svg xmlns="http://www.w3.org/2000/svg" width="40" height="40" viewBox="0 0 40 40"><rect width="100%" height="100%" fill="none"/><path d="M17.6 17.19q0 1.21.63 1.84.62.64 1.77.64.6 0 1.07-.19t.79-.52.49-.78q.16-.45.16-.97 0-.59-.18-1.05-.18-.47-.51-.79t-.78-.49q-.46-.17-1-.17-.56 0-1.01.18-.45.19-.77.52t-.49.78q-.17.46-.17 1m-1.21 10.12 4.49-5.61q.17-.21.32-.41t.29-.4q-.5.32-1.1.48-.6.17-1.26.17-.75 0-1.47-.26t-1.28-.79q-.56-.52-.91-1.3-.34-.77-.34-1.81 0-.97.36-1.82t1.01-1.49 1.56-1.01 2.01-.37q1.11 0 2 .35.88.35 1.51.98.62.63.95 1.51.34.88.34 1.93 0 .67-.11 1.27-.12.6-.33 1.16-.21.55-.51 1.08t-.67 1.05l-3.31 4.72q-.17.24-.51.4-.34.17-.77.17z"/></svg>