<svg xmlns="http://www.w3.org/2000/svg" width="1294" height="862" viewBox="0 0 1294 862"><rect width="100%" height="100%" fill="#808080"/><path fill="#FFFFFF" d="M420.2 333.53v-18.68q-11.55.54-19.44 1.99-7.88 1.46-12.63 3.73t-6.81 5.29q-2.05 3.03-2.05 6.59 0 7.02 4.16 10.04 4.16 3.03 10.85 3.03 8.21 0 14.21-2.97 5.99-2.97 11.71-9.02m-56.37-58.21-4.75-8.53q19.11-17.5 46-17.5 9.72 0 17.39 3.19 7.67 3.18 12.96 8.85t8.05 13.56q2.75 7.88 2.75 17.28v69.98h-12.09q-3.78 0-5.84-1.13-2.05-1.14-3.24-4.59l-2.37-8q-4.21 3.78-8.21 6.65-4 2.86-8.32 4.8-4.32 1.95-9.23 2.97-4.91 1.03-10.85 1.03-7.02 0-12.96-1.89t-10.26-5.67-6.7-9.4q-2.38-5.61-2.38-13.07 0-4.21 1.41-8.37 1.4-4.15 4.59-7.93 3.18-3.78 8.26-7.13t12.47-5.83q7.4-2.49 17.23-4.05 9.83-1.57 22.46-1.89v-6.48q0-11.13-4.75-16.47-4.75-5.35-13.71-5.35-6.48 0-10.75 1.51t-7.51 3.4-5.88 3.41q-2.65 1.51-5.89 1.51-2.81 0-4.75-1.46t-3.13-3.4m131-17.28 1.62 12.53q5.19-9.94 12.31-15.61 7.13-5.67 16.85-5.67 7.67 0 12.31 3.35l-1.72 19.98q-.54 1.94-1.57 2.75t-2.75.81q-1.62 0-4.81-.54t-6.21-.54q-4.43 0-7.88 1.3-3.46 1.29-6.21 3.72-2.76 2.43-4.86 5.89-2.11 3.46-3.95 7.88v68.26h-26.67V251.34h15.66q4.1 0 5.72 1.46t2.16 5.24m93.96 105.84q-14.47 0-22.19-8.16-7.72-8.15-7.72-22.51v-61.89h-11.34q-2.16 0-3.68-1.4-1.51-1.41-1.51-4.21v-10.59l17.82-2.91 5.62-30.24q.54-2.16 2.05-3.35t3.89-1.19h13.82v34.88h29.59v19.01h-29.59v60.05q0 5.18 2.54 8.1t6.97 2.92q2.48 0 4.15-.6 1.68-.59 2.92-1.24t2.21-1.24q.98-.6 1.95-.6 1.19 0 1.94.6.76.59 1.62 1.78l7.99 12.96q-5.83 4.86-13.39 7.34-7.56 2.49-15.66 2.49m44.28-112.54h26.79v110.81h-26.79zm30.46-32.29q0 3.46-1.41 6.48-1.4 3.02-3.72 5.29t-5.46 3.62q-3.13 1.35-6.69 1.35-3.46 0-6.54-1.35-3.07-1.35-5.34-3.62t-3.62-5.29-1.35-6.48q0-3.56 1.35-6.7 1.35-3.13 3.62-5.4 2.27-2.26 5.34-3.61 3.08-1.35 6.54-1.35 3.56 0 6.69 1.35 3.14 1.35 5.46 3.61 2.32 2.27 3.72 5.4 1.41 3.14 1.41 6.7m109.94 46.01-7.02 9.72q-1.19 1.51-2.32 2.37-1.13.87-3.29.87-2.06 0-4-1.24-1.94-1.25-4.64-2.81-2.7-1.57-6.43-2.81t-9.23-1.24q-7.02 0-12.32 2.54-5.29 2.53-8.8 7.29-3.51 4.75-5.24 11.5-1.72 6.75-1.72 15.28 0 8.86 1.89 15.77t5.45 11.61 8.64 7.13 11.45 2.43 10.31-1.57 6.64-3.46 4.7-3.45q2-1.57 4.48-1.57 3.24 0 4.86 2.49l7.67 9.72q-4.43 5.18-9.61 8.69t-10.75 5.62q-5.56 2.1-11.44 2.97-5.89.86-11.72.86-10.26 0-19.33-3.83-9.08-3.84-15.88-11.18-6.8-7.35-10.75-17.98-3.94-10.64-3.94-24.25 0-12.2 3.51-22.63 3.51-10.42 10.32-18.03 6.8-7.62 16.84-11.94 10.05-4.32 23.12-4.32 12.42 0 21.76 4t16.79 11.45m18.04-63.4h26.67v160.49h-26.67zM865.92 294h50.33q0-5.18-1.46-9.77t-4.37-8.05q-2.92-3.45-7.4-5.45t-10.42-2q-11.56 0-18.2 6.59T865.92 294m68.04 16.09h-68.58q.65 8.54 3.02 14.75 2.38 6.21 6.27 10.26t9.23 6.04q5.35 2 11.83 2t11.18-1.51q4.69-1.51 8.2-3.35 3.51-1.83 6.16-3.35 2.65-1.51 5.13-1.51 3.35 0 4.97 2.49l7.67 9.72q-4.43 5.18-9.94 8.69t-11.5 5.62q-6 2.1-12.21 2.97-6.21.86-12.04.86-11.55 0-21.49-3.83-9.94-3.84-17.28-11.34-7.34-7.51-11.56-18.58-4.21-11.07-4.21-25.65 0-11.34 3.67-21.33 3.68-9.99 10.53-17.39 6.86-7.4 16.74-11.72 9.89-4.32 22.31-4.32 10.47 0 19.33 3.35 8.85 3.35 15.23 9.78 6.37 6.42 9.99 15.76 3.61 9.35 3.61 21.33 0 6.05-1.29 8.16-1.3 2.1-4.97 2.1M486.89 510.54h26.79v110.81h-26.79zm30.46-32.29q0 3.46-1.4 6.48-1.41 3.02-3.73 5.29t-5.45 3.62q-3.14 1.35-6.7 1.35-3.46 0-6.53-1.35-3.08-1.35-5.35-3.62t-3.62-5.29-1.35-6.48q0-3.56 1.35-6.7 1.35-3.13 3.62-5.4 2.27-2.26 5.35-3.61 3.07-1.35 6.53-1.35 3.56 0 6.7 1.35 3.13 1.35 5.45 3.61 2.32 2.27 3.73 5.4 1.4 3.14 1.4 6.7m50.22 143.1h-26.68V510.54h16.31q5.19 0 6.81 4.86l1.72 8.21q2.92-3.24 6.11-5.94 3.18-2.7 6.8-4.64 3.62-1.95 7.78-3.08 4.15-1.14 9.12-1.14 10.48 0 17.23 5.67t10.1 15.07q2.59-5.51 6.48-9.45 3.88-3.94 8.53-6.43 4.64-2.48 9.88-3.67t10.53-1.19q9.18 0 16.31 2.81t11.99 8.21 7.39 13.18q2.54 7.77 2.54 17.82v70.52h-26.67v-70.52q0-10.59-4.65-15.93-4.64-5.35-13.61-5.35-4.1 0-7.61 1.4-3.51 1.41-6.16 4.05-2.64 2.65-4.15 6.65-1.52 3.99-1.52 9.18v70.52h-26.78v-70.52q0-11.13-4.48-16.2-4.48-5.08-13.12-5.08-5.84 0-10.86 2.86t-9.34 7.83zm194.72-58.1q4.97 0 8.64-1.35 3.68-1.35 6.11-3.73t3.67-5.72q1.24-3.35 1.24-7.35 0-8.21-4.91-13.01-4.92-4.81-14.75-4.81-9.82 0-14.74 4.81-4.91 4.8-4.91 13.01 0 3.89 1.24 7.24t3.67 5.78 6.16 3.78q3.72 1.35 8.58 1.35m30.14 63.07q0-3.24-1.95-5.29-1.94-2.06-5.29-3.19t-7.83-1.67-9.5-.81q-5.03-.27-10.37-.49-5.35-.22-10.42-.86-4.43 2.48-7.19 5.83-2.75 3.35-2.75 7.77 0 2.92 1.46 5.46t4.64 4.37q3.19 1.84 8.26 2.86 5.08 1.03 12.42 1.03 7.46 0 12.86-1.13 5.4-1.14 8.91-3.14 3.51-1.99 5.13-4.75 1.62-2.75 1.62-5.99m-5.3-112h31.86v9.94q0 4.75-5.72 5.83l-9.94 1.84q2.27 5.72 2.27 12.52 0 8.21-3.29 14.85-3.3 6.65-9.13 11.29t-13.77 7.18-17.12 2.54q-3.24 0-6.26-.32-3.02-.33-5.94-.87-5.18 3.13-5.18 7.02 0 3.35 3.07 4.92 3.08 1.56 8.16 2.21 5.07.65 11.55.81t13.29.7q6.8.54 13.28 1.89t11.56 4.27q5.07 2.91 8.15 7.94 3.08 5.02 3.08 12.9 0 7.35-3.62 14.26t-10.47 12.31q-6.86 5.4-16.85 8.69-9.99 3.3-22.74 3.3-12.52 0-21.81-2.43t-15.45-6.48q-6.15-4.05-9.18-9.34-3.02-5.3-3.02-11.02 0-7.78 4.7-13.01 4.7-5.24 12.9-8.37-4.42-2.27-7.02-6.05-2.59-3.78-2.59-9.94 0-2.48.92-5.13.92-2.64 2.7-5.24 1.78-2.59 4.48-4.91t6.37-4.16q-8.42-4.53-13.23-12.09-4.8-7.56-4.8-17.72 0-8.2 3.29-14.85 3.3-6.64 9.18-11.34 5.89-4.69 13.93-7.18 8.05-2.48 17.55-2.48 7.13 0 13.4 1.46 6.26 1.45 11.44 4.26"/></svg>