<svg xmlns="http://www.w3.org/2000/svg" width="300" height="200" viewBox="0 0 300 200"><rect width="100%" height="100%" fill="#808080"/><path fill="#FFFFFF" d="M97.495 77.43v-4.32q-2.67.12-4.5.46-1.82.34-2.92.86-1.1.53-1.58 1.23-.47.7-.47 1.52 0 1.63.96 2.33t2.51.7q1.9 0 3.29-.69t2.71-2.09m-13.05-13.47-1.1-1.98q4.43-4.05 10.65-4.05 2.25 0 4.03.74 1.77.74 3 2.05 1.22 1.31 1.86 3.14.64 1.82.64 4v16.2h-2.8q-.88 0-1.35-.26-.48-.27-.75-1.07l-.55-1.85q-.98.88-1.9 1.54-.93.66-1.93 1.11t-2.13.69q-1.14.24-2.52.24-1.62 0-3-.44-1.37-.44-2.37-1.31-1-.88-1.55-2.18t-.55-3.02q0-.98.32-1.94.33-.96 1.07-1.84.73-.87 1.91-1.65 1.17-.77 2.89-1.35 1.71-.57 3.98-.93 2.28-.37 5.2-.44v-1.5q0-2.58-1.1-3.81-1.1-1.24-3.17-1.24-1.5 0-2.49.35t-1.74.79l-1.36.78q-.61.35-1.36.35-.65 0-1.1-.33-.45-.34-.73-.79m30.33-4 .37 2.9q1.2-2.3 2.85-3.61 1.65-1.32 3.9-1.32 1.78 0 2.85.78l-.4 4.62q-.12.45-.36.64t-.64.19q-.37 0-1.11-.13-.74-.12-1.44-.12-1.02 0-1.82.3t-1.44.86-1.12 1.36q-.49.81-.92 1.83v15.8h-6.17V58.41h3.62q.95 0 1.33.34.37.33.5 1.21m21.75 24.5q-3.35 0-5.14-1.89t-1.79-5.21V63.03h-2.62q-.5 0-.85-.32-.35-.33-.35-.98v-2.45l4.12-.67 1.3-7q.13-.5.48-.78.35-.27.9-.27h3.2v8.07h6.85v4.4h-6.85v13.9q0 1.2.59 1.88.58.67 1.61.67.57 0 .96-.13.39-.14.68-.29.28-.15.51-.29.22-.14.45-.14.27 0 .45.14.17.14.37.41l1.85 3q-1.35 1.13-3.1 1.7-1.75.58-3.62.58m10.25-26.05h6.2v25.65h-6.2zm7.05-7.48q0 .8-.33 1.5-.32.7-.86 1.23-.54.52-1.26.84-.73.31-1.55.31-.8 0-1.51-.31-.72-.32-1.24-.84-.53-.53-.84-1.23t-.31-1.5q0-.82.31-1.55.31-.72.84-1.25.52-.52 1.24-.83.71-.32 1.51-.32.82 0 1.55.32.72.31 1.26.83.54.53.86 1.25.33.73.33 1.55m25.45 10.65-1.62 2.25q-.28.35-.54.55-.27.2-.77.2-.47 0-.92-.28-.45-.29-1.08-.65-.62-.37-1.48-.65-.87-.29-2.14-.29-1.63 0-2.85.59-1.22.58-2.04 1.69-.81 1.09-1.21 2.66-.4 1.56-.4 3.53 0 2.05.44 3.66.43 1.59 1.26 2.68.82 1.09 2 1.65 1.17.56 2.65.56t2.39-.36 1.54-.8q.62-.44 1.08-.8.47-.36 1.04-.36.75 0 1.13.57l1.77 2.25q-1.02 1.2-2.22 2.02-1.21.81-2.49 1.3-1.29.48-2.65.69-1.36.2-2.72.2-2.37 0-4.47-.89t-3.67-2.59q-1.58-1.7-2.49-4.16-.92-2.47-.92-5.62 0-2.82.82-5.23.81-2.42 2.38-4.18 1.58-1.76 3.9-2.76 2.33-1 5.35-1 2.88 0 5.04.92 2.17.93 3.89 2.65m4.17-14.67h6.18v37.15h-6.18zm17.23 21.37h11.65q0-1.2-.34-2.26-.33-1.06-1.01-1.86-.67-.8-1.71-1.26-1.04-.47-2.41-.47-2.68 0-4.22 1.53-1.53 1.53-1.96 4.32m15.75 3.73h-15.87q.15 1.97.7 3.41t1.45 2.38q.9.93 2.13 1.4 1.24.46 2.74.46t2.59-.35 1.9-.78q.81-.42 1.42-.77.62-.35 1.19-.35.78 0 1.15.57l1.78 2.25q-1.03 1.2-2.3 2.02-1.28.81-2.67 1.3-1.38.48-2.82.69-1.44.2-2.79.2-2.67 0-4.97-.89t-4-2.63-2.68-4.3q-.97-2.56-.97-5.94 0-2.62.85-4.93.85-2.32 2.43-4.03 1.59-1.71 3.88-2.71t5.16-1q2.43 0 4.48.77 2.05.78 3.52 2.27 1.48 1.48 2.31 3.65.84 2.16.84 4.93 0 1.4-.3 1.89t-1.15.49m-103.49 46.4h6.2v25.65h-6.2zm7.05-7.47q0 .79-.32 1.5-.33.69-.87 1.22-.53.53-1.26.84-.72.31-1.55.31-.8 0-1.51-.31t-1.24-.84q-.52-.53-.84-1.22-.31-.71-.31-1.5 0-.83.31-1.56.32-.72.84-1.25.53-.52 1.24-.83.71-.32 1.51-.32.83 0 1.55.32.73.31 1.26.83.54.53.87 1.25.32.73.32 1.56m11.63 33.12h-6.18v-25.65h3.78q1.2 0 1.57 1.12l.4 1.91q.68-.75 1.41-1.38.74-.62 1.58-1.08.84-.45 1.8-.71t2.11-.26q2.43 0 3.99 1.31 1.56 1.32 2.34 3.49.6-1.28 1.5-2.19t1.97-1.48q1.08-.58 2.29-.86 1.21-.27 2.44-.27 2.12 0 3.77.65t2.78 1.9q1.12 1.25 1.71 3.05t.59 4.12v16.33h-6.18v-16.33q0-2.45-1.07-3.68-1.08-1.24-3.15-1.24-.95 0-1.77.33-.81.32-1.42.93-.61.62-.96 1.54t-.35 2.12v16.33h-6.2v-16.33q0-2.57-1.04-3.75-1.04-1.17-3.04-1.17-1.35 0-2.51.66-1.16.67-2.16 1.81zm45.07-13.45q1.15 0 2-.31.85-.32 1.41-.86.57-.55.85-1.33.29-.78.29-1.7 0-1.9-1.14-3.01-1.13-1.12-3.41-1.12-2.27 0-3.41 1.12-1.14 1.11-1.14 3.01 0 .9.29 1.67.29.78.85 1.34t1.42.88q.87.31 1.99.31m6.98 14.6q0-.75-.45-1.23-.45-.47-1.23-.73-.77-.27-1.81-.39-1.04-.13-2.2-.19t-2.4-.11-2.41-.2q-1.03.58-1.67 1.35-.63.77-.63 1.8 0 .68.33 1.26.34.59 1.08 1.02.74.42 1.91.66 1.18.24 2.88.24 1.72 0 2.97-.27 1.25-.26 2.07-.72.81-.47 1.18-1.1.38-.64.38-1.39m-1.23-25.93h7.38v2.3q0 1.11-1.33 1.36l-2.3.42q.53 1.33.53 2.9 0 1.9-.77 3.44-.76 1.53-2.11 2.61t-3.19 1.66q-1.83.59-3.96.59-.75 0-1.45-.08-.7-.07-1.37-.19-1.2.72-1.2 1.62 0 .78.71 1.14t1.89.51q1.17.15 2.67.19t3.08.16q1.57.13 3.07.44t2.68.98q1.17.68 1.89 1.84.71 1.16.71 2.99 0 1.7-.84 3.3t-2.43 2.85q-1.58 1.25-3.9 2.01-2.31.77-5.26.77-2.9 0-5.05-.57-2.15-.56-3.57-1.5-1.43-.93-2.13-2.16-.7-1.22-.7-2.55 0-1.8 1.09-3.01 1.09-1.22 2.99-1.94-1.03-.53-1.63-1.4-.6-.88-.6-2.3 0-.58.22-1.19.21-.61.62-1.21t1.04-1.14q.62-.54 1.47-.96-1.95-1.05-3.06-2.8t-1.11-4.1q0-1.9.76-3.44t2.12-2.62q1.37-1.09 3.23-1.67 1.86-.57 4.06-.57 1.65 0 3.1.34t2.65.98"/></svg>