<svg xmlns="http://www.w3.org/2000/svg" width="24" height="24" viewBox="0 0 24 24" fill="currentColor">
    <rect width="100%" height="100%" fill="none"/>
    <path fill="#FFFFFF" d="M9.175 16.415h-1.48v-5.04l-.54-.08q-.17-.04-.28-.13-.1-.08-.1-.25v-.6h.92v-.46q0-.53.16-.95t.45-.71q.3-.29.73-.45.42-.16.96-.16.42 0 .79.12l-.03.74q-.01.09-.05.14t-.11.08q-.07.02-.16.03t-.19.01q-.27 0-.47.06-.21.05-.35.19-.15.15-.22.38-.08.23-.08.57v.41h1.6v1.05h-1.55zm3.87-4.36v2.76q.25.31.55.44.3.12.63.12.34 0 .61-.12t.47-.38q.19-.27.29-.67.1-.41.1-.97 0-1.01-.33-1.47-.34-.45-.97-.45-.43 0-.74.19-.32.2-.61.55m0-4.56v3.52q.37-.39.82-.62.46-.23 1.04-.23.53 0 .96.21t.73.6q.31.39.47.95t.16 1.26q0 .75-.18 1.36-.19.61-.54 1.04-.34.44-.83.68-.48.24-1.08.24-.28 0-.52-.06-.23-.05-.43-.16-.2-.1-.36-.25-.17-.14-.32-.32l-.06.41q-.04.16-.13.22-.08.07-.23.07h-.98v-8.92z"/>
</svg>