<svg xmlns="http://www.w3.org/2000/svg" width="24" height="24" viewBox="0 0 24 24">
    <rect width="100%" height="100%" fill="none"/>
    <path fill="#FFFFFF" d="M10.155 16.415h-1.49v-5.04l-.53-.08q-.17-.04-.28-.13-.1-.08-.1-.25v-.6h.91v-.46q0-.53.16-.95t.46-.71.72-.45q.43-.16.96-.16.43 0 .8.12l-.04.74q0 .09-.04.14t-.11.08q-.07.02-.16.03t-.2.01q-.26 0-.47.06-.2.05-.35.19-.14.15-.22.38-.07.23-.07.57v.41h1.6v1.05h-1.55zm3.69-5.78.09.69q.29-.55.69-.87.39-.31.93-.31.43 0 .69.19l-.1 1.11q-.03.1-.09.15-.05.04-.15.04-.09 0-.27-.03-.17-.03-.34-.03-.25 0-.44.08-.19.07-.34.2-.16.14-.27.33-.12.19-.22.44v3.79h-1.48v-6.16h.87q.22 0 .31.08.09.09.12.3"/>
</svg>