<svg xmlns="http://www.w3.org/2000/svg" width="72" height="52" viewBox="0 0 72 52">
    <rect width="100%" height="100%" fill="#eee"/>
    <path d="M16.45 15.27h1.61v6.9q0 .43-.11.82-.12.38-.37.67t-.65.45q-.41.17-.99.17-.23 0-.43-.03-.19-.03-.4-.09l.06-.87q.02-.13.1-.16.09-.04.33-.04t.4-.05q.17-.05.27-.15.09-.11.14-.29.04-.17.04-.43zm1.83-1.94q0 .21-.08.39-.09.18-.23.32-.14.13-.33.21t-.4.08-.39-.08q-.19-.08-.32-.21-.14-.14-.22-.32t-.08-.39q0-.22.08-.41.08-.18.22-.32.13-.14.32-.22.18-.08.39-.08t.4.08.33.22.23.32q.08.19.08.41m4.37 1.84q.74 0 1.35.24t1.04.68.67 1.08q.23.64.23 1.42 0 .8-.23 1.43-.24.64-.67 1.09T24 21.8t-1.35.24q-.75 0-1.36-.24t-1.04-.69-.67-1.09q-.24-.63-.24-1.43 0-.78.24-1.42t.67-1.08 1.04-.68 1.36-.24m0 5.63q.83 0 1.23-.56t.4-1.63q0-1.08-.4-1.65-.4-.56-1.23-.56-.84 0-1.25.56-.41.57-.41 1.65 0 1.07.41 1.63t1.25.56m8.66-5.53h1.6v6.67h-.98q-.32 0-.4-.29l-.11-.54q-.41.42-.9.68-.5.25-1.17.25-.54 0-.96-.18-.42-.19-.71-.52-.28-.34-.43-.81-.15-.46-.15-1.02v-4.24h1.61v4.24q0 .61.28.94.28.34.85.34.42 0 .78-.19.36-.18.69-.51zm4.61.4.09.76q.32-.6.75-.94.42-.34 1.01-.34.46 0 .74.2l-.1 1.2q-.04.12-.1.17t-.16.05-.29-.04q-.19-.03-.38-.03-.26 0-.47.08t-.37.22q-.17.15-.3.36-.12.21-.23.47v4.11H34.5v-6.67h.94q.25 0 .35.09.09.09.13.31m4.82-.11.11.53q.2-.2.43-.37.22-.18.47-.3t.54-.18q.28-.07.62-.07.55 0 .97.18.42.19.7.52.29.34.43.8.15.47.15 1.03v4.24h-1.61V17.7q0-.62-.28-.95-.27-.34-.85-.34-.41 0-.78.19-.36.19-.69.52v4.82h-1.6v-6.67h.98q.31 0 .41.29m9.46 4.66v-1.13q-.69.04-1.17.12-.47.09-.76.23-.28.13-.41.32-.12.18-.12.39 0 .42.25.61.25.18.65.18.5 0 .86-.18t.7-.54m-3.39-3.51-.29-.51q1.16-1.05 2.77-1.05.59 0 1.05.19t.78.53.48.82q.17.47.17 1.04v4.21h-.73q-.23 0-.35-.07t-.19-.27l-.15-.49q-.25.23-.49.4-.24.18-.5.29-.26.12-.56.18-.29.06-.65.06-.42 0-.78-.11t-.62-.34-.4-.57q-.14-.33-.14-.78 0-.26.08-.51.09-.25.28-.47.19-.23.49-.43.31-.21.76-.35.44-.15 1.03-.25.59-.09 1.35-.11v-.39q0-.67-.28-.99-.29-.33-.83-.33-.39 0-.64.1-.26.09-.46.2-.19.11-.35.21-.16.09-.35.09-.17 0-.29-.09t-.19-.21m6.49-4.43h1.6v9.66h-1.6zM14.7 32.82v2.99q.27.33.6.47.32.14.69.14t.66-.14.5-.42q.2-.28.31-.7.11-.43.11-1.01t-.09-.99q-.09-.4-.27-.66-.18-.25-.43-.37-.25-.11-.56-.11-.51 0-.86.21t-.66.59m-.21-1.66.13.62q.41-.46.93-.75.52-.28 1.22-.28.54 0 1 .23.45.22.78.65.32.44.5 1.07t.18 1.45q0 .75-.2 1.39t-.58 1.1q-.37.47-.9.73-.53.27-1.19.27-.55 0-.95-.17-.4-.18-.71-.48v2.73h-1.6v-8.85h.98q.31 0 .41.29m7.41.11.09.76q.32-.6.74-.94.43-.34 1.02-.34.46 0 .74.2l-.1 1.2q-.04.12-.1.17t-.16.05-.29-.04q-.2-.03-.38-.03-.26 0-.47.08t-.38.22q-.16.15-.29.36-.12.21-.24.47v4.11h-1.6v-6.67h.94q.25 0 .35.09.09.09.13.31m4.7 2.17h3.02q0-.31-.08-.59-.09-.28-.27-.48-.17-.21-.44-.33t-.63-.12q-.69 0-1.09.39-.4.4-.51 1.13m4.09.97h-4.13q.04.51.19.88.14.38.37.62.24.25.56.37t.71.12.67-.09q.29-.1.5-.21t.37-.2.31-.09q.2 0 .29.15l.47.59q-.27.31-.6.52t-.69.34q-.36.12-.74.18-.37.05-.72.05-.7 0-1.3-.23-.59-.23-1.04-.69-.44-.45-.69-1.11-.26-.67-.26-1.55 0-.68.23-1.28.22-.6.63-1.05.41-.44 1.01-.7.59-.26 1.34-.26.63 0 1.16.2.54.2.92.59.38.38.6.95.22.56.22 1.28 0 .36-.08.49t-.3.13m6.33-3.54h1.26l-2.64 6.67h-1.46l-2.64-6.67h1.32q.18 0 .3.09.12.08.16.21l1.29 3.56q.1.31.18.61t.14.6q.06-.3.14-.6t.19-.61l1.31-3.56q.05-.13.17-.21.11-.09.28-.09m2.17 0h1.61v6.67h-1.61zm1.83-1.94q0 .21-.09.39-.08.18-.22.32-.14.13-.33.21-.19.09-.4.09t-.39-.09q-.19-.08-.33-.21-.13-.14-.21-.32t-.08-.39q0-.22.08-.41.08-.18.21-.32.14-.14.33-.22.18-.08.39-.08t.4.08.33.22.22.32q.09.19.09.41m2.68 4.51h3.03q0-.31-.09-.59-.08-.28-.26-.48-.17-.21-.44-.33t-.63-.12q-.7 0-1.1.39-.4.4-.51 1.13m4.1.97h-4.13q.04.51.18.88.15.38.38.62.23.25.56.37.32.12.71.12t.67-.09q.28-.1.49-.21.22-.11.38-.2.15-.09.3-.09.21 0 .3.15l.46.59q-.26.31-.59.52-.34.21-.7.34-.36.12-.73.18-.37.05-.73.05-.69 0-1.29-.23t-1.04-.69q-.44-.45-.69-1.11-.26-.67-.26-1.55 0-.68.22-1.28t.64-1.05q.41-.44 1-.7.6-.26 1.35-.26.63 0 1.16.2t.92.59q.38.38.6.95.22.56.22 1.28 0 .36-.08.49t-.3.13m9.88-3.54h1.22l-2.12 6.67h-1.29q-.22 0-.3-.29l-1.2-3.85q-.06-.2-.1-.39-.05-.19-.09-.38-.03.19-.08.39t-.11.39l-1.22 3.84q-.07.29-.34.29h-1.24l-2.11-6.67h1.28q.18 0 .3.09.13.08.16.21l.96 3.56q.07.29.13.57.05.28.09.56.07-.28.15-.56t.18-.57l1.1-3.57q.04-.13.15-.22.12-.08.28-.08h.71q.17 0 .29.08.12.09.16.22l1.07 3.57.16.58.14.56q.09-.55.25-1.14l.98-3.56q.04-.13.16-.21.12-.09.28-.09"/>
</svg>