<svg xmlns="http://www.w3.org/2000/svg" width="290" height="61" viewBox="0 0 290 61">
    <rect width="100%" height="100%" fill="#eee"/>
    <path d="M60.66 35.265h8.09v3.11H56.9v-20.24h3.76zm12.97-5.72h6.52q0-.68-.19-1.27-.19-.6-.57-1.04-.37-.45-.96-.71-.58-.26-1.35-.26-1.49 0-2.35.85-.87.86-1.1 2.43m8.82 2.08h-8.89q.08 1.11.39 1.91.31.81.81 1.33.5.53 1.2.79.69.26 1.53.26t1.45-.2 1.06-.43q.46-.24.8-.44.34-.19.67-.19.43 0 .64.32l.99 1.26q-.57.67-1.28 1.12-.72.46-1.5.73-.77.28-1.58.39-.8.11-1.56.11-1.5 0-2.78-.5-1.29-.49-2.24-1.47-.96-.97-1.5-2.41-.55-1.43-.55-3.32 0-1.47.48-2.77.47-1.29 1.36-2.25t2.17-1.52 2.89-.56q1.36 0 2.51.44 1.15.43 1.97 1.26.83.84 1.3 2.05t.47 2.76q0 .79-.17 1.06t-.64.27m23.05-13.49h2.85v20.24h-3.32v-13.08q0-.78.08-1.69l-6.12 11.49q-.43.83-1.33.83h-.53q-.89 0-1.33-.83l-6.19-11.53q.05.46.07.91.03.45.03.82v13.08h-3.32v-20.24h2.85q.25 0 .43.01t.33.07.26.18q.12.13.24.34l6.06 11.24q.24.45.44.92.2.48.4.98.19-.51.4-1 .21-.48.45-.93l5.98-11.21q.11-.21.24-.34.12-.12.27-.18t.33-.07.43-.01m13.16 5.65q1.6 0 2.91.52t2.24 1.47 1.43 2.32q.51 1.38.51 3.07 0 1.71-.51 3.08-.5 1.37-1.43 2.34-.93.96-2.24 1.48t-2.91.52q-1.61 0-2.92-.52-1.32-.52-2.25-1.48-.93-.97-1.44-2.34t-.51-3.08q0-1.69.51-3.07.51-1.37 1.44-2.32t2.25-1.47q1.31-.52 2.92-.52m0 12.14q1.8 0 2.66-1.2.86-1.21.86-3.53 0-2.33-.86-3.54-.86-1.22-2.66-1.22-1.82 0-2.69 1.22-.88 1.23-.88 3.54t.88 3.52q.87 1.21 2.69 1.21m12.73-11.28.24 1.13q.43-.43.92-.81.48-.37 1.02-.63.54-.25 1.15-.4.62-.15 1.35-.15 1.17 0 2.08.4t1.52 1.12.93 1.72q.31 1 .31 2.21v9.14h-3.46v-9.14q0-1.32-.6-2.04t-1.83-.72q-.9 0-1.68.41-.79.4-1.49 1.1v10.39h-3.46v-14.36h2.12q.67 0 .88.63m21.81 9.47v-6.44q-.59-.71-1.28-1-.69-.3-1.49-.3-.78 0-1.41.3-.63.29-1.08.89-.45.59-.69 1.51-.24.91-.24 2.16 0 1.26.21 2.14.2.87.58 1.42.38.56.92.8.55.25 1.22.25 1.08 0 1.83-.45.76-.45 1.43-1.28m0-16.54h3.46v20.8h-2.11q-.69 0-.87-.63l-.3-1.39q-.86 1-1.99 1.61-1.13.62-2.63.62-1.17 0-2.15-.49t-1.69-1.42-1.09-2.3q-.39-1.38-.39-3.14 0-1.6.44-2.97.43-1.37 1.24-2.38.82-1.01 1.95-1.57 1.13-.57 2.55-.57 1.2 0 2.06.38.85.38 1.52 1.02zm9.61 11.97h6.52q0-.68-.19-1.27-.19-.6-.57-1.04-.37-.45-.96-.71-.58-.26-1.35-.26-1.49 0-2.35.85-.87.86-1.1 2.43m8.82 2.08h-8.89q.08 1.11.39 1.91.31.81.81 1.33.5.53 1.2.79.69.26 1.53.26t1.45-.2 1.06-.43q.46-.24.8-.44.34-.19.67-.19.43 0 .64.32l.99 1.26q-.57.67-1.28 1.12-.72.46-1.5.73-.77.28-1.58.39-.8.11-1.56.11-1.5 0-2.78-.5-1.29-.49-2.24-1.47-.96-.97-1.5-2.41-.55-1.43-.55-3.32 0-1.47.48-2.77.47-1.29 1.36-2.25t2.17-1.52 2.89-.56q1.36 0 2.51.44 1.15.43 1.97 1.26.83.84 1.3 2.05t.47 2.76q0 .79-.17 1.06t-.64.27m10.24-14.05h3.46v20.8h-3.46zm13.28 6.21q1.59 0 2.9.52t2.24 1.47 1.44 2.32q.5 1.38.5 3.07 0 1.71-.5 3.08-.51 1.37-1.44 2.34-.93.96-2.24 1.48t-2.9.52q-1.61 0-2.93-.52t-2.25-1.48q-.93-.97-1.44-2.34t-.51-3.08q0-1.69.51-3.07.51-1.37 1.44-2.32t2.25-1.47 2.93-.52m0 12.14q1.79 0 2.65-1.2.86-1.21.86-3.53 0-2.33-.86-3.54-.86-1.22-2.65-1.22-1.82 0-2.7 1.22-.87 1.23-.87 3.54t.87 3.52q.88 1.21 2.7 1.21m14.98-5.08q.64 0 1.12-.18.47-.17.79-.48.31-.31.47-.74.16-.44.16-.95 0-1.07-.63-1.69-.64-.62-1.91-.62-1.28 0-1.91.62-.64.62-.64 1.69 0 .5.16.93.16.44.48.75.31.32.79.49.49.18 1.12.18m3.9 8.17q0-.42-.25-.68-.25-.27-.69-.42-.43-.14-1.01-.21t-1.23-.11q-.65-.03-1.35-.06-.69-.03-1.35-.11-.57.32-.93.75-.36.44-.36 1.01 0 .38.19.71t.61.57q.41.23 1.07.37.65.13 1.61.13t1.66-.15q.7-.14 1.16-.4.45-.26.66-.62t.21-.78m-.68-14.51h4.13v1.28q0 .62-.75.76l-1.28.24q.29.74.29 1.62 0 1.07-.43 1.93-.42.86-1.18 1.46t-1.79.93q-1.02.33-2.21.33-.42 0-.82-.04-.39-.04-.77-.11-.67.4-.67.91 0 .43.4.63.4.21 1.06.29t1.5.1q.84.03 1.72.1t1.72.24q.84.18 1.5.55.66.38 1.05 1.03.4.65.4 1.68 0 .95-.46 1.84-.47.9-1.36 1.6t-2.19 1.13q-1.29.42-2.94.42-1.63 0-2.83-.31-1.21-.32-2-.84-.8-.53-1.19-1.21-.4-.69-.4-1.43 0-1.01.61-1.69t1.68-1.08q-.58-.3-.91-.79-.34-.49-.34-1.28 0-.33.12-.67t.35-.68q.23-.33.58-.64.35-.3.83-.53-1.1-.59-1.72-1.57t-.62-2.3q0-1.06.43-1.92.42-.86 1.19-1.47.76-.61 1.8-.93 1.04-.33 2.28-.33.92 0 1.73.19t1.49.56m12.67-.72q1.59 0 2.9.52t2.24 1.47 1.44 2.32q.5 1.38.5 3.07 0 1.71-.5 3.08-.51 1.37-1.44 2.34-.93.96-2.24 1.48t-2.9.52q-1.61 0-2.93-.52t-2.25-1.48q-.93-.97-1.44-2.34t-.51-3.08q0-1.69.51-3.07.51-1.37 1.44-2.32t2.25-1.47 2.93-.52m0 12.14q1.79 0 2.65-1.2.86-1.21.86-3.53 0-2.33-.86-3.54-.86-1.22-2.65-1.22-1.82 0-2.7 1.22-.87 1.23-.87 3.54t.87 3.52q.88 1.21 2.7 1.21"/></svg>