<svg xmlns="http://www.w3.org/2000/svg" width="664" height="332" viewBox="0 0 664 332"><rect width="100%" height="100%" fill="#DDDDDD"/><path fill="#999999" d="M138.46 180.06h-6.17v-25.65h3.77q1.2 0 1.58 1.12l.4 1.9q.67-.75 1.41-1.37.74-.63 1.57-1.08.84-.45 1.8-.71.97-.26 2.12-.26 2.42 0 3.98 1.31 1.57 1.31 2.34 3.49.6-1.28 1.5-2.19t1.98-1.49q1.07-.57 2.28-.85 1.22-.27 2.44-.27 2.13 0 3.78.65t2.77 1.9q1.13 1.25 1.71 3.05.59 1.8.59 4.13v16.32h-6.17v-16.32q0-2.46-1.08-3.69-1.07-1.24-3.15-1.24-.95 0-1.76.32-.81.33-1.43.94-.61.61-.96 1.54-.35.92-.35 2.13v16.32h-6.2v-16.32q0-2.58-1.04-3.76-1.03-1.17-3.03-1.17-1.35 0-2.52.66-1.16.66-2.16 1.81zm49.25-6.63v-4.32q-2.67.12-4.5.46-1.82.34-2.92.86-1.1.53-1.58 1.23-.47.7-.47 1.52 0 1.63.96 2.33t2.51.7q1.9 0 3.29-.69t2.71-2.09m-13.05-13.47-1.1-1.98q4.43-4.05 10.65-4.05 2.25 0 4.03.74 1.77.74 3 2.05 1.22 1.31 1.86 3.14.64 1.82.64 4v16.2h-2.8q-.88 0-1.35-.26-.48-.27-.75-1.07l-.55-1.85q-.98.88-1.9 1.54-.93.66-1.93 1.11t-2.14.69q-1.13.24-2.51.24-1.62 0-3-.44-1.37-.44-2.37-1.31-1-.88-1.55-2.18t-.55-3.02q0-.98.32-1.94.33-.96 1.06-1.84.74-.87 1.92-1.65 1.17-.77 2.88-1.35 1.72-.57 3.99-.93 2.28-.37 5.2-.44v-1.5q0-2.58-1.1-3.81-1.1-1.24-3.17-1.24-1.5 0-2.49.35t-1.74.79l-1.36.78q-.61.35-1.36.35-.65 0-1.1-.33-.45-.34-.73-.79m25.08-5.55h6.2v25.65h-6.2zm7.05-7.48q0 .8-.33 1.5-.32.7-.86 1.23-.54.52-1.26.84-.73.31-1.55.31-.8 0-1.52-.31-.71-.32-1.23-.84-.53-.53-.84-1.23t-.31-1.5q0-.82.31-1.55.31-.72.84-1.25.52-.52 1.23-.83.72-.32 1.52-.32.82 0 1.55.32.72.31 1.26.83.54.53.86 1.25.33.73.33 1.55m10.8 8.6.42 2.03q.78-.78 1.64-1.44t1.82-1.12q.97-.47 2.07-.73t2.4-.26q2.1 0 3.72.71 1.63.71 2.71 2 1.09 1.29 1.65 3.08.57 1.78.57 3.94v16.32h-6.18v-16.32q0-2.36-1.07-3.64-1.08-1.29-3.28-1.29-1.6 0-3 .72-1.4.73-2.65 1.98v18.55h-6.17v-25.65h3.77q1.2 0 1.58 1.12m48.55 17.9v-4.32q-2.68.12-4.5.46-1.83.34-2.93.86-1.1.53-1.57 1.23-.48.7-.48 1.52 0 1.63.96 2.33.97.7 2.52.7 1.9 0 3.28-.69 1.39-.69 2.72-2.09m-13.05-13.47-1.1-1.98q4.42-4.05 10.65-4.05 2.25 0 4.02.74 1.78.74 3 2.05 1.23 1.31 1.86 3.14.64 1.82.64 4v16.2h-2.8q-.87 0-1.35-.26-.47-.27-.75-1.07l-.55-1.85q-.97.88-1.9 1.54-.92.66-1.92 1.11t-2.14.69-2.51.24q-1.63 0-3-.44-1.38-.44-2.38-1.31-1-.88-1.55-2.18t-.55-3.02q0-.98.33-1.94.32-.96 1.06-1.84.74-.87 1.91-1.65 1.18-.77 2.89-1.35 1.71-.57 3.99-.93 2.27-.37 5.2-.44v-1.5q0-2.58-1.1-3.81-1.1-1.24-3.18-1.24-1.5 0-2.49.35-.98.35-1.73.79-.75.43-1.37.78-.61.35-1.36.35-.65 0-1.1-.33-.45-.34-.72-.79m30.32-4 .38 2.9q1.2-2.3 2.85-3.61 1.65-1.32 3.9-1.32 1.77 0 2.85.78l-.4 4.62q-.13.45-.37.64-.23.19-.63.19-.38 0-1.12-.13-.73-.12-1.43-.12-1.03 0-1.83.3t-1.44.86q-.63.56-1.12 1.36-.49.81-.91 1.83v15.8h-6.18v-25.65h3.63q.95 0 1.32.34.38.33.5 1.21m21.75 24.5q-3.35 0-5.14-1.89-1.78-1.89-1.78-5.21v-14.33h-2.63q-.5 0-.85-.32-.35-.33-.35-.98v-2.45l4.13-.67 1.3-7q.12-.5.47-.78.35-.27.9-.27h3.2v8.07h6.85v4.4h-6.85v13.9q0 1.2.59 1.88.59.67 1.61.67.58 0 .96-.13.39-.14.68-.29t.51-.29q.23-.14.45-.14.28 0 .45.14.18.14.38.41l1.85 3q-1.35 1.13-3.1 1.7-1.75.58-3.63.58m10.25-26.05h6.2v25.65h-6.2zm7.05-7.48q0 .8-.32 1.5-.33.7-.87 1.23-.53.52-1.26.84-.72.31-1.55.31-.8 0-1.51-.31-.71-.32-1.24-.84-.52-.53-.84-1.23-.31-.7-.31-1.5 0-.82.31-1.55.32-.72.84-1.25.53-.52 1.24-.83.71-.32 1.51-.32.83 0 1.55.32.73.31 1.26.83.54.53.87 1.25.32.73.32 1.55m25.45 10.65-1.62 2.25q-.28.35-.54.55t-.76.2q-.48 0-.93-.28-.45-.29-1.07-.65-.63-.37-1.49-.65-.86-.29-2.14-.29-1.62 0-2.85.59-1.22.58-2.04 1.69-.81 1.09-1.21 2.66-.4 1.56-.4 3.53 0 2.05.44 3.66.44 1.59 1.26 2.68.83 1.09 2 1.65 1.18.56 2.65.56 1.48 0 2.39-.36t1.54-.8q.62-.44 1.08-.8.47-.36 1.04-.36.75 0 1.13.57l1.77 2.25q-1.02 1.2-2.22 2.02-1.2.81-2.49 1.3-1.29.48-2.65.69-1.36.2-2.71.2-2.38 0-4.48-.89t-3.67-2.59q-1.58-1.7-2.49-4.16-.91-2.47-.91-5.62 0-2.82.81-5.23.81-2.42 2.39-4.18 1.57-1.76 3.9-2.76 2.32-1 5.35-1 2.87 0 5.03.92 2.17.93 3.89 2.65m4.18-14.67h6.17v37.15h-6.17zm17.22 21.37h11.65q0-1.2-.34-2.26-.33-1.06-1.01-1.86-.67-.8-1.71-1.26-1.04-.47-2.41-.47-2.68 0-4.22 1.53-1.53 1.53-1.96 4.32m15.75 3.73h-15.87q.15 1.97.7 3.41t1.45 2.38q.9.93 2.13 1.4 1.24.46 2.74.46t2.59-.35 1.9-.78q.81-.42 1.42-.77.62-.35 1.19-.35.78 0 1.15.57l1.78 2.25q-1.03 1.2-2.3 2.02-1.28.81-2.67 1.3-1.38.48-2.82.69-1.44.2-2.79.2-2.67 0-4.97-.89t-4-2.63-2.68-4.3q-.97-2.56-.97-5.94 0-2.62.85-4.93.85-2.32 2.43-4.03 1.59-1.71 3.88-2.71t5.16-1q2.43 0 4.48.77 2.05.78 3.52 2.27 1.48 1.48 2.31 3.65.84 2.16.84 4.93 0 1.4-.3 1.89t-1.15.49m18.43-13.6h6.2v25.65h-6.2zm7.05-7.48q0 .8-.33 1.5-.32.7-.86 1.23-.54.52-1.26.84-.73.31-1.55.31-.8 0-1.52-.31-.71-.32-1.23-.84-.53-.53-.84-1.23t-.31-1.5q0-.82.31-1.55.31-.72.84-1.25.52-.52 1.23-.83.72-.32 1.52-.32.82 0 1.55.32.72.31 1.26.83.54.53.86 1.25.33.73.33 1.55m11.62 33.13h-6.17v-25.65h3.77q1.2 0 1.58 1.12l.4 1.9q.67-.75 1.41-1.37.74-.63 1.57-1.08.84-.45 1.8-.71.97-.26 2.12-.26 2.42 0 3.98 1.31 1.57 1.31 2.34 3.49.6-1.28 1.5-2.19t1.98-1.49q1.07-.57 2.28-.85 1.22-.27 2.44-.27 2.13 0 3.78.65t2.77 1.9q1.13 1.25 1.71 3.05.59 1.8.59 4.13v16.32h-6.17v-16.32q0-2.46-1.08-3.69-1.07-1.24-3.15-1.24-.95 0-1.76.32-.81.33-1.43.94-.61.61-.96 1.54-.35.92-.35 2.13v16.32h-6.2v-16.32q0-2.58-1.04-3.76-1.03-1.17-3.03-1.17-1.35 0-2.52.66-1.16.66-2.16 1.81zm49.25-6.63v-4.32q-2.67.12-4.5.46-1.82.34-2.92.86-1.1.53-1.58 1.23-.47.7-.47 1.52 0 1.63.96 2.33t2.51.7q1.9 0 3.29-.69t2.71-2.09m-13.05-13.47-1.1-1.98q4.43-4.05 10.65-4.05 2.25 0 4.03.74 1.77.74 3 2.05 1.22 1.31 1.86 3.14.64 1.82.64 4v16.2h-2.8q-.88 0-1.35-.26-.48-.27-.75-1.07l-.55-1.85q-.98.88-1.9 1.54-.93.66-1.93 1.11t-2.14.69q-1.13.24-2.51.24-1.62 0-3-.44-1.37-.44-2.37-1.31-1-.88-1.55-2.18t-.55-3.02q0-.98.32-1.94.33-.96 1.06-1.84.74-.87 1.92-1.65 1.17-.77 2.88-1.35 1.72-.57 3.99-.93 2.28-.37 5.2-.44v-1.5q0-2.58-1.1-3.81-1.1-1.24-3.17-1.24-1.5 0-2.49.35t-1.74.79l-1.36.78q-.61.35-1.36.35-.65 0-1.1-.33-.45-.34-.73-.79m34.25 6.65q1.15 0 2-.31.85-.32 1.41-.87.57-.55.85-1.32.29-.78.29-1.7 0-1.9-1.14-3.01-1.13-1.12-3.41-1.12-2.27 0-3.41 1.12-1.14 1.11-1.14 3.01 0 .9.29 1.67.29.78.85 1.34t1.42.88q.87.31 1.99.31m6.98 14.6q0-.75-.45-1.23-.45-.47-1.23-.73-.77-.26-1.81-.39t-2.2-.19-2.4-.11-2.41-.2q-1.03.57-1.67 1.35-.63.78-.63 1.8 0 .68.33 1.26.34.59 1.08 1.02.74.42 1.91.66 1.18.24 2.88.24 1.72 0 2.97-.27 1.25-.26 2.06-.72.82-.46 1.19-1.1.38-.64.38-1.39m-1.23-25.93h7.38v2.3q0 1.1-1.33 1.35l-2.3.43q.53 1.32.53 2.9 0 1.9-.77 3.44-.76 1.53-2.11 2.61-1.35 1.07-3.19 1.66-1.83.59-3.96.59-.75 0-1.45-.08-.7-.07-1.37-.2-1.2.73-1.2 1.63 0 .77.71 1.14.71.36 1.89.51 1.17.15 2.67.19 1.5.03 3.08.16 1.57.12 3.07.44 1.5.31 2.68.98 1.17.68 1.88 1.84.72 1.16.72 2.99 0 1.7-.84 3.3t-2.43 2.85q-1.58 1.25-3.9 2.01-2.31.77-5.26.77-2.9 0-5.05-.57-2.15-.56-3.57-1.5-1.43-.93-2.13-2.16-.7-1.22-.7-2.55 0-1.8 1.09-3.01 1.09-1.22 2.99-1.94-1.03-.53-1.63-1.4-.6-.88-.6-2.3 0-.58.21-1.19.22-.61.63-1.21t1.04-1.14q.62-.54 1.47-.96-1.95-1.05-3.06-2.8t-1.11-4.1q0-1.9.76-3.44t2.12-2.62q1.37-1.09 3.23-1.67 1.86-.57 4.06-.57 1.65 0 3.1.34 1.45.33 2.65.98m16.15 9h11.65q0-1.2-.34-2.26-.33-1.06-1.01-1.86-.67-.8-1.71-1.26-1.04-.47-2.41-.47-2.68 0-4.22 1.53-1.53 1.53-1.96 4.32m15.75 3.73h-15.87q.15 1.97.7 3.41t1.45 2.38q.9.93 2.13 1.4 1.24.46 2.74.46t2.59-.35 1.9-.78q.81-.42 1.42-.77.62-.35 1.19-.35.78 0 1.15.57l1.78 2.25q-1.03 1.2-2.3 2.02-1.28.81-2.67 1.3-1.38.48-2.82.69-1.44.2-2.79.2-2.67 0-4.97-.89t-4-2.63-2.68-4.3q-.97-2.56-.97-5.94 0-2.62.85-4.93.85-2.32 2.43-4.03 1.59-1.71 3.88-2.71t5.16-1q2.43 0 4.48.77 2.05.78 3.52 2.27 1.48 1.48 2.31 3.65.84 2.16.84 4.93 0 1.4-.3 1.89t-1.15.49"/></svg>