<svg xmlns="http://www.w3.org/2000/svg" width="24" height="24" viewBox="0 0 24 24"><rect width="100%" height="100%" fill="none"/><path fill="#FFFFFF" d="m11.24 9.585-.33.53q-.06.1-.13.14-.06.04-.16.04-.11 0-.24-.06l-.28-.14q-.16-.07-.37-.13t-.49-.06q-.44 0-.69.18-.24.19-.24.49 0 .2.12.33.13.14.35.24.21.1.48.18t.55.18.55.22.48.31.34.45q.13.27.13.64 0 .44-.16.82-.16.37-.47.65-.31.27-.77.42-.46.16-1.06.16-.32 0-.62-.06t-.58-.16-.52-.24q-.23-.14-.42-.3l.35-.56q.06-.11.15-.16t.23-.05.26.07q.12.08.29.17.16.09.38.17t.55.08q.27 0 .46-.07.19-.06.31-.16t.18-.24q.06-.13.06-.28 0-.21-.13-.35t-.35-.24q-.21-.1-.48-.18t-.56-.18-.56-.23q-.27-.12-.48-.32-.22-.2-.35-.49-.12-.29-.12-.69 0-.38.14-.72.16-.35.45-.6.29-.26.72-.41.44-.15 1.01-.15.63 0 1.16.21.52.21.86.55m5.99.1-.39.54q-.07.08-.13.13t-.18.05-.23-.07q-.1-.07-.25-.16t-.36-.15q-.21-.07-.51-.07-.4 0-.69.14t-.49.4q-.19.27-.29.64-.09.38-.09.85 0 .49.1.88.11.38.3.64.2.26.48.4.28.13.64.13.35 0 .57-.09.22-.08.37-.19.15-.1.26-.19t.25-.09q.18 0 .27.14l.43.54q-.25.29-.54.49-.28.19-.59.31-.31.11-.64.16t-.65.05q-.57 0-1.07-.21-.51-.22-.89-.62-.37-.41-.59-1t-.22-1.35q0-.68.19-1.26.2-.58.58-1 .37-.42.93-.66t1.29-.24q.69 0 1.2.22.52.22.94.64"/></svg>