<svg xmlns="http://www.w3.org/2000/svg" width="24" height="24" viewBox="0 0 24 24"><rect width="100%" height="100%" fill="none"/><path fill="#FFFFFF" d="M10.25 16.07q-.8 0-1.23-.46-.43-.45-.43-1.25v-3.44h-.63q-.12 0-.21-.07-.08-.08-.08-.24v-.59l.99-.16.31-1.68Q9 8.06 9.09 8q.08-.07.21-.07h.77v1.94h1.64v1.05h-1.64v3.34q0 .29.14.45t.39.16q.14 0 .23-.03t.16-.07l.12-.07q.06-.03.11-.03.07 0 .11.03t.09.1l.44.72q-.32.27-.74.41t-.87.14m4.46 0q-.8 0-1.23-.46-.43-.45-.43-1.25v-3.44h-.63q-.12 0-.2-.07-.09-.08-.09-.24v-.59l.99-.16.32-1.68q.03-.12.11-.18.08-.07.22-.07h.76v1.94h1.65v1.05h-1.65v3.34q0 .29.15.45.14.16.38.16.14 0 .23-.03.1-.03.16-.07.07-.04.13-.07.05-.03.11-.03t.1.03q.05.03.09.1l.45.72q-.33.27-.75.41t-.87.14"/></svg>