<svg xmlns="http://www.w3.org/2000/svg" width="24" height="24" viewBox="0 0 24 24"><rect width="100%" height="100%" fill="none"/><path fill="#FFFFFF" d="M11.755 8.855h1.19l-3.36 7.85q-.06.16-.17.24-.1.08-.32.08h-1.1l1.15-2.47-2.49-5.7h1.3q.17 0 .27.09.1.08.15.19l1.31 3.19q.06.16.11.33.04.16.09.33l.1-.34.12-.32 1.24-3.19q.05-.12.16-.2t.25-.08m3.98 6.26q-.81 0-1.24-.46-.43-.45-.43-1.25v-3.44h-.63q-.12 0-.2-.07-.08-.08-.08-.24v-.59l.99-.16.31-1.68q.03-.12.11-.18.09-.07.22-.07h.77v1.94h1.64v1.05h-1.64v3.34q0 .29.14.45t.38.16q.14 0 .24-.03.09-.03.16-.07l.12-.07q.05-.03.11-.03t.11.03q.04.03.09.1l.44.72q-.32.27-.74.41t-.87.14"/></svg>